HIERARCHY
ROOT Hip
{
  OFFSET 0.0 0.0 0.0
  CHANNELS 6 Xposition Yposition Zposition Xrotation Yrotation Zrotation
  JOINT LowerSpine
  {
    OFFSET 0.0 0.061367 -0.03653
    CHANNELS 3 Xrotation Yrotation Zrotation
    JOINT MiddleSpine
    {
      OFFSET 0.0 0.056002 0.002633
      CHANNELS 3 Xrotation Yrotation Zrotation
      JOINT Chest
      {
        OFFSET 0.0 0.069296 -0.013882
        CHANNELS 3 Xrotation Yrotation Zrotation
        JOINT Neck
        {
          OFFSET 0.0 0.156156 -0.002923
          CHANNELS 3 Xrotation Yrotation Zrotation
          JOINT Head
          {
            OFFSET 0.0 0.088183 0.023986
            CHANNELS 3 Xrotation Yrotation Zrotation
            End Site
            {
              OFFSET 1e-06 0.123215 0.003678
            }
          }
        }
        JOINT LClavicle
        {
          OFFSET 0.014189 0.150698 0.046467
          CHANNELS 3 Xrotation Yrotation Zrotation
          JOINT LShoulder
          {
            OFFSET 0.082893 0.021616 -0.034976
            CHANNELS 3 Xrotation Yrotation Zrotation
            JOINT LForearm
            {
              OFFSET 0.195645 -0.000695 -0.001695
              CHANNELS 3 Xrotation Yrotation Zrotation
              JOINT LHand
              {
                OFFSET 0.163209 0.000474 -0.000977
                CHANNELS 3 Xrotation Yrotation Zrotation
                End Site
                {
                  OFFSET 0.0 0.006864 0.0
                }
              }
            }
          }
        }
        JOINT RClavicle
        {
          OFFSET -0.014189 0.150698 0.046467
          CHANNELS 3 Xrotation Yrotation Zrotation
          JOINT RShoulder
          {
            OFFSET -0.082908 0.021619 -0.034982
            CHANNELS 3 Xrotation Yrotation Zrotation
            JOINT RForearm
            {
              OFFSET -0.195645 -0.000695 -0.001695
              CHANNELS 3 Xrotation Yrotation Zrotation
              JOINT RHand
              {
                OFFSET -0.163209 0.000474 -0.000977
                CHANNELS 3 Xrotation Yrotation Zrotation
                End Site
                {
                  OFFSET 0.0 0.006864 0.0
                }
              }
            }
          }
        }
      }
    }
  }
  JOINT RThigh
  {
    OFFSET -0.072558 0.02774 -0.005953
    CHANNELS 3 Xrotation Yrotation Zrotation
    JOINT RShin
    {
      OFFSET -0.005253 -0.285537 0.0
      CHANNELS 3 Xrotation Yrotation Zrotation
      JOINT RFoot
      {
        OFFSET 0.0 -0.28038 0.0
        CHANNELS 3 Xrotation Yrotation Zrotation
        JOINT RToe
        {
          OFFSET 0.0 -0.030816 0.064441
          CHANNELS 3 Xrotation Yrotation Zrotation
          End Site
          {
            OFFSET 0.0 0.0 0.043231
          }
        }
      }
    }
  }
  JOINT LThigh
  {
    OFFSET 0.072557 0.027741 -0.005953
    CHANNELS 3 Xrotation Yrotation Zrotation
    JOINT LShin
    {
      OFFSET 0.005253 -0.285539 0.0
      CHANNELS 3 Xrotation Yrotation Zrotation
      JOINT LFoot
      {
        OFFSET 0.0 -0.28038 0.0
        CHANNELS 3 Xrotation Yrotation Zrotation
        JOINT LToe
        {
          OFFSET 0.0 -0.030816 0.064441
          CHANNELS 3 Xrotation Yrotation Zrotation
          End Site
          {
            OFFSET 0.0 0.0 0.043231
          }
        }
      }
    }
  }
}
MOTION
Frames: 7
Frame Time: 0.03333333333333333
0.029588 0.578449 -0.01195 -5.730799 -0.776281 1.187979 0.586755 -0.310351 0.011963 0.399051 1.188528 0.055841 2.988383 6.484762 -1.900765 0.104073 0.167996 0.158445 -0.016246 -0.020957 0.001155 0.003885 -0.059291 -12.9163 17.945066 -28.274445 -53.785511 10.582072 -29.990776 -1.24109 0.030929 0.062603 -0.019904 -0.305868 0.543643 13.91308 6.478871 40.787697 61.008022 6.60467 25.543116 3.926689 0.016588 -0.107864 0.012463 0.572018 3.712513 -0.691661 8.01289 1.941974 0.088064 -2.049402 1.028478 0.492173 -0.004524 0.196774 0.062451 10.810713 13.317352 1.4412 1.02113 8.440698 -2.901387 -3.520934 0.118428 0.189042 -0.007529 -0.023538 -0.002229 
0.030189 0.5786 -0.011393 -5.793093 -0.828712 1.128848 0.564231 -0.313662 0.012307 0.423443 1.203214 0.049633 3.090431 6.501846 -1.928244 0.086015 0.165897 0.154219 -0.016165 -0.01796 0.000958 0.026605 -0.048991 -12.96327 17.923944 -28.411749 -53.69677 10.560719 -29.804003 -1.261964 0.031102 0.062967 -0.020208 -0.283564 0.511635 13.914964 6.571782 40.799736 60.899982 6.619739 25.935408 3.938265 0.018912 -0.110154 0.012602 0.686559 3.729613 -0.676616 7.927433 1.959451 0.08686 -2.035613 1.056864 0.507036 -0.005644 0.197451 0.062087 11.015718 13.269336 1.406444 1.007835 8.400165 -2.873917 -3.546278 0.130263 0.196852 -0.007839 -0.023271 -0.001215 
0.030611 0.578783 -0.010745 -5.846621 -0.886094 1.082311 0.538581 -0.315206 0.016555 0.44568 1.213963 0.042951 3.189087 6.501957 -1.968451 0.070032 0.163169 0.15046 -0.015955 -0.016145 0.000628 0.042861 -0.040949 -13.020007 17.936752 -28.527775 -53.614929 10.5523 -29.638182 -1.277592 0.031153 0.063007 -0.020289 -0.264141 0.496565 13.916831 6.716681 40.753956 60.774982 6.634248 26.447062 3.964926 0.019365 -0.111608 0.012596 0.787407 3.735514 -0.670109 7.84289 1.973843 0.075556 -2.017795 1.082864 0.521981 -0.007346 0.196094 0.061668 11.193222 13.231916 1.37337 0.997793 8.369311 -2.848425 -3.567063 0.143925 0.205945 -0.007884 -0.023146 -0.000531 
0.030861 0.578993 -0.010006 -5.895093 -0.947164 1.048461 0.508795 -0.315841 0.026064 0.467216 1.223449 0.03696 3.290416 6.492451 -2.020363 0.054335 0.159888 0.146756 -0.015475 -0.016304 0.000142 0.051853 -0.04077 -13.085975 17.987267 -28.62825 -53.536438 10.561855 -29.500568 -1.279092 0.03125 0.06302 -0.020353 -0.247965 0.493582 13.915935 6.913549 40.657166 60.629337 6.65291 27.076624 4.007659 0.017436 -0.112227 0.012268 0.878143 3.736696 -0.665869 7.754564 1.989963 0.050719 -1.996961 1.106739 0.53623 -0.009625 0.193128 0.061348 11.356571 13.200937 1.343075 0.981363 8.34561 -2.828648 -3.582226 0.158923 0.216897 -0.00731 -0.023705 -0.000407 
0.030909 0.579217 -0.00915 -5.93399 -1.022584 1.039614 0.475718 -0.314996 0.038875 0.489294 1.231403 0.031256 3.383289 6.474053 -2.078709 0.038841 0.157089 0.143358 -0.01462 -0.017717 -0.000549 0.058325 -0.039048 -13.159863 18.060852 -28.695866 -53.482098 10.581137 -29.369919 -1.2712 0.031387 0.06306 -0.02036 -0.229556 0.495698 13.908499 7.134457 40.509933 60.485043 6.651366 27.81039 4.071358 0.014133 -0.112431 0.011783 0.960512 3.746351 -0.676905 7.684332 2.006731 0.015715 -1.981979 1.126176 0.548717 -0.011872 0.189932 0.061168 11.495102 13.174754 1.317193 0.959592 8.333097 -2.807368 -3.592484 0.175532 0.230226 -0.00607 -0.024604 -0.000582 
0.030806 0.579459 -0.008213 -5.971394 -1.098002 1.040762 0.440287 -0.313391 0.054154 0.511184 1.237465 0.025015 3.480501 6.446593 -2.146248 0.023339 0.154109 0.140311 -0.013626 -0.019973 -0.001401 0.061857 -0.039101 -13.240878 18.154482 -28.748922 -53.431263 10.60552 -29.252649 -1.25973 0.031592 0.06314 -0.020407 -0.212021 0.505962 13.899519 7.385314 40.332211 60.3316 6.642877 28.643394 4.145021 0.009632 -0.112345 0.011166 1.04274 3.754285 -0.689665 7.610894 2.025603 -0.028113 -1.965684 1.145413 0.561532 -0.014418 0.185995 0.061089 11.623629 13.156113 1.294694 0.932489 8.328005 -2.788925 -3.598984 0.193373 0.244548 -0.004425 -0.025865 -0.00105 
0.03057 0.579725 -0.007196 -6.006108 -1.166919 1.051285 0.40298 -0.311038 0.072097 0.531924 1.24101 0.018252 3.581751 6.410771 -2.221079 0.008183 0.150636 0.137784 -0.012626 -0.022885 -0.00238 0.061395 -0.042952 -13.324931 18.269392 -28.787762 -53.378521 10.633041 -29.152597 -1.246984 0.031665 0.06294 -0.020302 -0.196675 0.528486 13.890228 7.669564 40.123768 60.16209 6.627884 29.547794 4.229182 0.003648 -0.111482 0.010435 1.121787 3.759335 -0.703501 7.538294 2.047758 -0.080188 -1.948633 1.164568 0.574606 -0.017497 0.180741 0.060981 11.738551 13.150954 1.276832 0.907741 8.331446 -2.774178 -3.602012 0.211493 0.25878 -0.002616 -0.02718 -0.001734 
